<svg xmlns="http://www.w3.org/2000/svg" version="1.1" width="500" height="500" viewBox="0 0 500 500">
    <g transform="matrix(1 0 0 1 250 360)">
        <path
                fill="#4A6CF7"
                d="M -250 -140 L -190 -140 L -190 -20.31254 L -190 -20.31254 C -190 1.9514600000000009 -171.95146 20 -149.68746 20 L -66.10936999999998 20 L -66.10936999999998 20 C -33.907659999999986 20 -6.599899999999984 43.66465 -2.02024999999999 75.53904 L -2.02024999999999 75.53904 L -2.02024999999999 75.53904 C -1.96804999999999 75.90233 -1.6608499999999902 76.17462 -1.2939299999999903 76.18283 C -0.9270099999999902 76.19104 -0.6079399999999903 75.93275 -0.5395499999999902 75.57216 L -0.5395499999999902 75.57216 L -0.5395499999999902 75.57216 C 5.57456000000001 43.33412 33.75006000000001 20 66.56277000000001 20 L 152.08209 20 L 152.08209 20 C 173.02357 20 189.99999 3.023579999999999 189.99999 -17.917900000000003 L 189.99999 -140 L 249.99999 -140 L 249.99999 11.028459999999995 L 249.99999 11.028459999999995 C 249.99999 60.16609 210.16607 100 161.02845 100 L 69.99999 100 L 69.99999 100 C 47.90859999999999 100 29.999989999999997 117.90861 29.999989999999997 140 L 29.999989999999997 140 L -30.000010000000003 140 L -30.000010000000003 140 L -30.000010000000003 140 C -30.000010000000003 117.90861 -47.90862 100 -70.00001 100 L -161.02847 100 L -161.02847 100 C -210.1661 100 -250.00001 60.16608 -250.00001 11.028459999999995 z"
        />
    </g>
    <g transform="matrix(1 0 0 -1 250 90)">
        <path
                fill="#37eab2"
                d="M -250 -90 L -190 -90 L -190 -70.31254 L -190 -70.31254 C -190 -48.04854 -171.95146 -30 -149.68746 -30 L -66.10936999999998 -30 L -66.10936999999998 -30 C -33.907659999999986 -30 -6.599899999999984 -6.335349999999998 -2.02024999999999 25.53904 L -2.02024999999999 25.53904 L -2.02024999999999 25.53904 C -1.96804999999999 25.90233 -1.6608499999999902 26.17462 -1.2939299999999903 26.18283 C -0.9270099999999902 26.191039999999997 -0.6079399999999903 25.93275 -0.5395499999999902 25.57216 L -0.5395499999999902 25.57216 L -0.5395499999999902 25.57216 C 5.57456000000001 -6.665879999999998 33.75006000000001 -29.999999999999996 66.56277000000001 -29.999999999999996 L 152.08209 -29.999999999999996 L 152.08209 -29.999999999999996 C 173.02357 -29.999999999999996 189.99999 -46.97642 189.99999 -67.9179 L 189.99999 -90 L 249.99999 -90 L 249.99999 -38.97154 L 249.99999 -38.97154 C 249.99999 10.166090000000004 210.16607 50.00000000000001 161.02845 50.00000000000001 L 69.99999 50.00000000000001 L 69.99999 50.00000000000001 C 47.90859999999999 50.00000000000001 29.999989999999997 67.90861000000001 29.999989999999997 90 L 29.999989999999997 90 L -30.000010000000003 90 L -30.000010000000003 90 L -30.000010000000003 90 C -30.000010000000003 67.90861 -47.90862 50 -70.00001 50 L -161.02847 50 L -161.02847 50 C -210.1661 50 -250.00001 10.166080000000001 -250.00001 -38.971540000000005 z"
        />
    </g>
    <g transform="matrix(0.7476076555 0 0 0.7476076555 160.4043062201 180.4043062201)">
        <path
                fill="#FD9D2C"
                d="M 63.366 80 L 40 56.634 L 16.634 80 L 0 63.366 L 23.366 40 L 0 16.634 L 16.634 0 L 40 23.366 L 63.366 0 L 80 16.634 L 56.634 40 L 80 63.366 L 63.366 80 z"
        />
    </g>
    <g transform="matrix(0.9490671864 0 0 0.9490671864 309.5164408075 210.4835591925)">
        <path
                fill="#FD9D2C"
                d="M 0 -31.10048 C 17.16746 -31.10048 31.10048 -17.16747 31.10048 0 C 31.10048 17.16746 17.16747 31.10048 0 31.10048 C -17.16746 31.10048 -31.10048 17.16747 -31.10048 0 C -31.10048 -17.16746 -17.16747 -31.10048 0 -31.10048 z"
        />
    </g>
    <g transform="matrix(1 0 0 1 250 311.875)">
        <path
                fill="#FD9D2C"
                d="M -130 -31.875 L -80.16517 -19.41629 L -80.16517 -19.41629 C -60.13068 -14.40767 -39.55754 -11.875 -18.906460000000003 -11.875 L 18.866609999999994 -11.875 L 18.866609999999994 -11.875 C 39.544149999999995 -11.875 60.143649999999994 -14.41091 80.20381 -19.42595 L 129.99999 -31.875 L 129.99999 8.125 C 129.99999 8.125 94.99999 23.125 49.99999 28.125 C 4.999989999999997 33.125 -5.000010000000003 33.125 -50.00001 28.125 C -95.00001 23.125 -130.00001 8.125 -130.00001 8.125 z"
        />
    </g>
</svg>