<?xml version="1.0" standalone="no"?>
<!DOCTYPE svg PUBLIC "-//W3C//DTD SVG 20010904//EN"
 "http://www.w3.org/TR/2001/REC-SVG-20010904/DTD/svg10.dtd">
<svg version="1.0" xmlns="http://www.w3.org/2000/svg"
 width="700.000000pt" height="700.000000pt" viewBox="0 0 700.000000 700.000000"
 preserveAspectRatio="xMidYMid meet">
<metadata>
Created by potrace 1.14, written by Peter Selinger 2001-2017
</metadata>
<g transform="translate(0.000000,700.000000) scale(0.100000,-0.100000)"
fill="#000000" stroke="none">
<path d="M3079 6983 c-3 -81 -30 -190 -59 -233 -8 -14 -22 -38 -30 -54 -25
-50 -137 -152 -208 -189 -124 -65 -138 -66 -928 -68 -390 0 -738 -5 -774 -10
-495 -69 -907 -430 -1036 -908 -37 -137 -42 -211 -43 -628 l-2 -413 420 0 419
0 4 193 c6 218 15 259 81 372 49 85 145 173 231 215 125 59 130 59 836 60 355
0 668 3 695 6 197 24 403 127 537 269 75 80 88 96 128 165 60 105 98 203 115
300 8 48 23 59 30 24 59 -284 253 -535 515 -665 79 -39 197 -77 267 -85 32 -3
67 -8 78 -10 11 -2 317 -4 681 -4 636 -1 663 -1 733 -21 73 -21 164 -69 212
-112 70 -63 133 -167 167 -277 2 -8 6 -108 9 -222 l5 -208 419 0 420 0 -2 408
c0 224 -5 432 -10 462 -5 30 -11 71 -14 90 -19 124 -138 405 -195 460 -3 3
-18 24 -34 48 -45 65 -180 197 -266 257 -111 78 -211 129 -332 170 -183 61
-207 62 -988 64 -388 1 -728 4 -755 7 -111 13 -234 74 -317 157 -49 49 -108
128 -108 144 0 5 -9 27 -19 49 -20 42 -45 158 -39 184 3 13 -56 15 -419 18
-398 2 -423 1 -424 -15z"/>
<path d="M2330 4385 l-85 -85 123 -123 122 -122 -122 -122 -123 -123 88 -87
87 -86 122 121 123 122 122 -122 122 -121 87 87 88 87 -122 122 -122 122 122
123 122 123 -87 87 -87 87 -123 -123 -122 -122 -120 120 c-66 66 -122 120
-125 120 -3 0 -44 -38 -90 -85z"/>
<path d="M4243 4455 c-251 -54 -393 -339 -285 -570 160 -341 645 -316 767 40
49 143 9 308 -102 418 -101 102 -238 142 -380 112z"/>
<path d="M3 2773 c4 -1247 1 -1176 59 -1353 85 -259 258 -490 481 -641 158
-106 301 -164 492 -199 91 -17 165 -19 810 -20 430 0 736 -5 775 -11 245 -38
448 -270 459 -521 l1 -28 420 0 420 0 1 28 c0 15 2 36 4 47 2 11 7 36 10 55
11 60 82 193 132 246 92 97 222 165 343 178 25 3 365 6 755 7 763 1 783 3 955
55 377 115 690 420 815 793 14 43 28 92 31 107 3 16 10 47 16 69 8 28 13 377
15 1188 l4 1147 -421 0 -420 0 0 -881 c0 -755 -2 -890 -15 -947 -36 -155 -136
-282 -282 -356 -109 -54 -123 -55 -833 -56 -360 0 -675 -3 -700 -6 -414 -47
-744 -347 -834 -757 -10 -41 -22 -25 -36 45 -23 122 -104 292 -182 384 -111
132 -262 236 -418 287 -131 44 -21 39 -1240 50 -325 3 -337 3 -395 27 -183 72
-291 181 -361 365 -18 48 -19 94 -22 948 l-3 897 -420 0 -420 0 4 -1147z"/>
<path d="M1682 2800 l3 -282 47 -18 c246 -93 534 -172 813 -224 11 -2 45 -7
75 -11 30 -4 62 -8 70 -10 8 -1 42 -6 75 -10 32 -4 66 -8 75 -10 8 -2 53 -6
99 -10 47 -4 93 -8 103 -10 10 -2 58 -7 106 -10 48 -4 110 -8 137 -10 66 -5
400 -5 445 -1 32 4 76 8 235 21 33 3 74 7 90 9 17 3 62 7 100 11 39 4 81 8 95
10 228 34 246 37 420 76 207 46 434 114 623 188 l27 11 0 280 c0 263 -1 281
-17 276 -49 -15 -786 -196 -833 -205 -30 -6 -64 -12 -75 -14 -27 -6 -100 -18
-128 -22 -50 -6 -154 -17 -226 -25 -98 -10 -994 -10 -1086 0 -38 5 -97 11
-130 14 -163 17 -316 49 -750 157 -198 49 -368 92 -378 95 -16 5 -17 -11 -15
-276z"/>
</g>
</svg>
